<svg width="129" height="85" viewBox="0 0 129 85" fill="none" xmlns="http://www.w3.org/2000/svg">
<path fill-rule="evenodd" clip-rule="evenodd" d="M120.303 0.000195228C120.457 -0.000802298 120.61 0.00208622 120.764 0.00996085C120.788 0.0111424 120.811 0.0134536 120.835 0.0148437C120.937 0.0210214 121.04 0.0281823 121.142 0.0382812C121.238 0.0475939 121.333 0.059777 121.428 0.0724609C121.451 0.0755898 121.474 0.0779202 121.497 0.0812499C121.524 0.0850088 121.55 0.0879759 121.576 0.0919921L121.865 0.142773C121.874 0.144401 121.882 0.146001 121.891 0.147656C121.988 0.166584 122.085 0.18869 122.181 0.211133C122.207 0.217224 122.233 0.222361 122.259 0.228711C122.622 0.317336 122.975 0.431136 123.316 0.567578C123.325 0.57082 123.333 0.574075 123.341 0.577344C123.444 0.618768 123.545 0.662674 123.646 0.708203C123.667 0.718026 123.689 0.727478 123.711 0.7375C123.798 0.777924 123.884 0.820028 123.97 0.863476C124.003 0.880309 124.036 0.896949 124.069 0.914258C124.135 0.948698 124.199 0.984513 124.264 1.0207C124.328 1.05667 124.392 1.09325 124.455 1.13105C124.488 1.1509 124.521 1.17129 124.554 1.1916C124.628 1.23723 124.701 1.28408 124.774 1.33223C124.812 1.35756 124.849 1.38341 124.887 1.40937C124.961 1.46041 125.034 1.51292 125.107 1.5666C125.126 1.58104 125.146 1.59496 125.165 1.60957C125.354 1.75188 125.536 1.90348 125.713 2.06367C125.72 2.07033 125.728 2.07651 125.735 2.0832C125.912 2.24487 126.083 2.41557 126.246 2.59492C126.267 2.61807 126.288 2.64184 126.309 2.66523C126.373 2.73778 126.438 2.81062 126.5 2.88594C126.522 2.91215 126.542 2.93952 126.564 2.96602C126.621 3.03713 126.678 3.10833 126.733 3.18184C127.282 3.91008 127.707 4.7352 127.982 5.62715C128.005 5.70234 128.025 5.77815 128.046 5.85371C128.059 5.90027 128.073 5.94646 128.085 5.99336C128.285 6.77175 128.362 7.56656 128.323 8.35176C128.32 8.41352 128.315 8.47494 128.311 8.53633C128.306 8.60737 128.301 8.67839 128.294 8.74922C128.285 8.83794 128.274 8.92603 128.263 9.01387C128.258 9.0461 128.255 9.07838 128.25 9.11055C128.236 9.20724 128.22 9.30309 128.202 9.39863C128.196 9.43181 128.191 9.46515 128.185 9.49824C128.066 10.1087 127.877 10.6933 127.628 11.2453C127.616 11.273 127.604 11.3008 127.591 11.3283C127.555 11.4057 127.517 11.4818 127.479 11.5578C127.456 11.6028 127.434 11.648 127.41 11.6926C127.379 11.752 127.346 11.8108 127.314 11.8693C127.281 11.9282 127.247 11.987 127.213 12.0451C127.185 12.0925 127.155 12.139 127.126 12.1857C127.083 12.2553 127.039 12.3244 126.993 12.3928C126.974 12.421 126.955 12.4488 126.936 12.4768C126.882 12.5557 126.827 12.634 126.77 12.7111C126.753 12.7341 126.735 12.7567 126.718 12.7795C126.578 12.9645 126.43 13.144 126.273 13.3176C126.261 13.3304 126.249 13.3429 126.237 13.3557C126.163 13.4366 126.088 13.5168 126.01 13.5949C125.997 13.6073 125.984 13.6187 125.972 13.6311C125.809 13.7922 125.639 13.9476 125.46 14.0959C125.409 14.1387 125.356 14.1803 125.304 14.2219C125.256 14.2593 125.21 14.2977 125.161 14.3342C124.938 14.503 124.705 14.66 124.464 14.8049L79.4737 42.2453L124.513 69.716C124.535 69.7295 124.556 69.7443 124.578 69.758C124.668 69.8143 124.758 69.8711 124.846 69.9309C124.896 69.965 124.945 70.0012 124.994 70.0363C125.044 70.0719 125.094 70.1071 125.143 70.1438C125.76 70.6051 126.292 71.143 126.736 71.7355C126.744 71.7452 126.751 71.7551 126.758 71.7648C126.825 71.8554 126.89 71.9473 126.953 72.0402C126.963 72.0543 126.973 72.0681 126.982 72.0822C127.034 72.1585 127.083 72.2359 127.131 72.3137C127.16 72.3603 127.189 72.4071 127.217 72.4543C127.246 72.5032 127.274 72.5524 127.302 72.6018C127.339 72.668 127.377 72.7345 127.412 72.802C127.435 72.8453 127.457 72.8891 127.479 72.9328C127.516 73.0075 127.554 73.0824 127.589 73.1584C127.603 73.1885 127.616 73.2189 127.63 73.2492C127.931 73.9166 128.143 74.6321 128.25 75.382C128.253 75.4051 128.256 75.4283 128.259 75.4514C128.273 75.5547 128.286 75.6584 128.296 75.7629C128.299 75.797 128.301 75.8313 128.304 75.8654C128.311 75.9569 128.319 76.0485 128.323 76.1408C128.349 76.6639 128.322 77.1911 128.243 77.715C128.235 77.7714 128.224 77.8271 128.214 77.883C128.201 77.9572 128.19 78.0317 128.175 78.1057C128.161 78.1765 128.143 78.2465 128.127 78.3166C128.115 78.3703 128.103 78.4242 128.09 78.4777C127.825 79.5282 127.351 80.4953 126.716 81.3332C126.695 81.3608 126.673 81.387 126.651 81.4143C126.597 81.4843 126.542 81.5541 126.485 81.6223C126.441 81.6757 126.395 81.7275 126.35 81.7795C126.311 81.8235 126.273 81.8682 126.233 81.9113C126.172 81.9782 126.109 82.0432 126.046 82.1076C126.025 82.1288 126.005 82.1501 125.983 82.1711C125.905 82.2492 125.825 82.3253 125.744 82.3996C125.734 82.4088 125.724 82.4178 125.714 82.427C125.634 82.4991 125.554 82.5694 125.472 82.6379C125.451 82.6555 125.43 82.6732 125.408 82.6906C125.332 82.7529 125.255 82.8131 125.177 82.8723C125.152 82.8911 125.128 82.9104 125.103 82.9289C125.032 82.9815 124.959 83.0322 124.887 83.0822C124.849 83.1082 124.812 83.134 124.774 83.1594C124.706 83.2041 124.638 83.2477 124.569 83.2902C124.526 83.3171 124.483 83.3442 124.44 83.3703C124.389 83.4002 124.338 83.4285 124.287 83.4572C124.214 83.4986 124.141 83.5392 124.066 83.5783C124.035 83.5946 124.004 83.6103 123.973 83.6262C123.885 83.6709 123.797 83.7146 123.707 83.7561C123.686 83.7659 123.664 83.7747 123.643 83.7844C123.547 83.8278 123.45 83.8697 123.352 83.9094C123.334 83.9163 123.317 83.9231 123.3 83.9299C122.728 84.1569 122.124 84.3209 121.496 84.4104C121.473 84.4136 121.451 84.4161 121.428 84.4191C121.333 84.4318 121.238 84.444 121.142 84.4533C121.04 84.4634 120.937 84.4706 120.835 84.4768C120.811 84.4781 120.788 84.4805 120.764 84.4816C120.61 84.4895 120.457 84.4934 120.303 84.4924H8.03035C7.87577 84.4934 7.72145 84.4896 7.56746 84.4816C7.54755 84.4807 7.52776 84.4779 7.50789 84.4768C7.40157 84.4705 7.29538 84.4638 7.18953 84.4533C7.10147 84.4448 7.01403 84.4335 6.92683 84.4221C6.89492 84.4178 6.86298 84.414 6.83113 84.4094C6.20133 84.3192 5.5958 84.1554 5.02253 83.927C5.01085 83.9223 4.99904 83.918 4.98738 83.9133C4.88889 83.8735 4.79187 83.8309 4.69539 83.7873C4.66775 83.7749 4.63989 83.7629 4.61238 83.7502C4.53505 83.7142 4.45884 83.6763 4.38289 83.6379C4.3392 83.6159 4.29534 83.5943 4.25203 83.5715C4.18652 83.5369 4.1221 83.5005 4.05769 83.4641C4.00306 83.4333 3.94857 83.4024 3.89461 83.3703C3.85205 83.3449 3.80969 83.3193 3.76765 83.2932C3.69303 83.2469 3.61919 83.1994 3.54597 83.1506C3.52022 83.1334 3.49436 83.1163 3.46882 83.0988C3.17396 82.8972 2.89141 82.6748 2.62312 82.4318C2.61134 82.4212 2.59969 82.4104 2.58796 82.3996C2.4148 82.2409 2.24721 82.0743 2.08699 81.8986C2.05804 81.867 2.03047 81.8341 2.00203 81.802C1.94976 81.7427 1.89748 81.6833 1.84675 81.6223C1.80033 81.5666 1.75593 81.5093 1.71101 81.4523C1.67627 81.4081 1.64045 81.3647 1.60652 81.3195C1.0548 80.5888 0.625797 79.7605 0.35066 78.8645C0.333787 78.8097 0.319423 78.7543 0.303785 78.6994C0.28299 78.6261 0.260992 78.5529 0.242261 78.4787C0.228617 78.4249 0.217632 78.3706 0.205152 78.3166C0.189008 78.2465 0.171581 78.1765 0.1573 78.1057C0.049341 77.5731 -0.00190648 77.0348 7.38498e-05 76.4992V7.99727C-0.00278942 7.3281 0.0775731 6.65473 0.247144 5.99336C0.259112 5.94647 0.273411 5.90026 0.286207 5.85371C0.307063 5.77815 0.327475 5.70234 0.35066 5.62715C0.587053 4.85755 0.936304 4.13736 1.37996 3.48652C1.41006 3.4422 1.44187 3.3992 1.47273 3.35566C1.51329 3.29866 1.55377 3.24162 1.59578 3.18574C1.65253 3.10995 1.71156 3.03634 1.77058 2.96309C1.79127 2.93751 1.81111 2.91125 1.83211 2.88594C1.89434 2.81062 1.95894 2.73777 2.02351 2.66523C2.0444 2.64184 2.06486 2.61807 2.08601 2.59492C2.24951 2.41557 2.41978 2.24487 2.59675 2.0832C2.60408 2.07651 2.61187 2.07033 2.61921 2.06367C2.79629 1.90312 2.97999 1.75216 3.16902 1.60957C3.18937 1.59418 3.20906 1.57789 3.22957 1.5627C3.31084 1.50261 3.39339 1.44465 3.47664 1.38789C3.49616 1.37454 3.51558 1.36104 3.53523 1.34785C3.6208 1.29063 3.70751 1.23554 3.795 1.18184C3.82013 1.16634 3.84487 1.15018 3.87019 1.13496C3.94209 1.09192 4.01488 1.05064 4.08796 1.00996C4.13715 0.982464 4.18658 0.955383 4.2364 0.928906C4.28985 0.900632 4.34352 0.872921 4.39753 0.845898C4.46798 0.810498 4.5388 0.775736 4.61043 0.742383C4.63859 0.729323 4.66709 0.717022 4.69539 0.704297C4.79335 0.660071 4.89224 0.617677 4.99226 0.577344C5.00241 0.573263 5.01237 0.568687 5.02253 0.564648C5.362 0.429397 5.71275 0.316777 6.07332 0.228711C6.09924 0.222359 6.12546 0.217226 6.15144 0.211133C6.24758 0.188679 6.34404 0.166595 6.44148 0.147656C6.47488 0.141118 6.50858 0.136191 6.54207 0.130078C6.61348 0.117149 6.68484 0.103004 6.75691 0.0919921L6.8448 0.0802734C6.8721 0.0763626 6.89949 0.0731605 6.92683 0.0695312C7.01402 0.0581226 7.10147 0.0468482 7.18953 0.0382812C7.29537 0.0277762 7.40158 0.0211234 7.50789 0.0148437C7.52776 0.0137055 7.54755 0.0109533 7.56746 0.00996085C7.72144 0.00202019 7.87579 -0.000811407 8.03035 0.000195228H120.303ZM36.3458 68.551H91.9874L64.1661 51.5822L36.3458 68.551ZM15.9415 62.3225L48.8585 42.2453L15.9415 22.1682V62.3225ZM64.1661 32.9084L91.9864 15.9416H36.3468L64.1661 32.9084Z" fill="#FF5E00"/>
</svg>
