<svg width="186" height="72" viewBox="0 0 186 72" fill="none" xmlns="http://www.w3.org/2000/svg">
<path d="M15.9843 32.3568C13.5651 32.3568 11.3763 31.9968 9.41793 31.2768C7.48833 30.5568 5.81793 29.52 4.40673 28.1664C2.99553 26.784 1.91553 25.0848 1.16673 23.0688C0.417933 21.0528 0.0435329 18.7488 0.0435329 16.1568C0.0435329 13.5648 0.417933 11.2752 1.16673 9.288C1.91553 7.272 2.99553 5.5872 4.40673 4.2336C5.81793 2.8512 7.48833 1.8 9.41793 1.08C11.3763 0.360003 13.5651 3.15552e-06 15.9843 3.15552e-06C18.7203 3.15552e-06 21.1539 0.475203 23.2851 1.4256C25.4451 2.376 27.1731 3.7152 28.4691 5.4432C29.7939 7.1424 30.5859 9.1296 30.8451 11.4048H22.9827C22.7523 10.4544 22.3059 9.6192 21.6435 8.8992C21.0099 8.1792 20.2035 7.6176 19.2243 7.2144C18.2739 6.8112 17.1939 6.6096 15.9843 6.6096C14.3715 6.6096 12.9603 6.9552 11.7507 7.6464C10.5699 8.3088 9.64833 9.3456 8.98593 10.7568C8.32353 12.168 7.99233 13.968 7.99233 16.1568C7.99233 17.7984 8.17953 19.2384 8.55393 20.4768C8.95713 21.6864 9.50433 22.68 10.1955 23.4576C10.8867 24.2352 11.7219 24.8112 12.7011 25.1856C13.6803 25.56 14.7747 25.7472 15.9843 25.7472C17.1651 25.7472 18.2307 25.5456 19.1811 25.1424C20.1603 24.7392 20.9811 24.1776 21.6435 23.4576C22.3347 22.7376 22.7811 21.888 22.9827 20.9088H30.8451C30.5859 23.184 29.7795 25.1856 28.4259 26.9136C27.1011 28.6416 25.3731 29.9808 23.2419 30.9312C21.1107 31.8816 18.6915 32.3568 15.9843 32.3568ZM48.8383 32.3568C46.4191 32.3568 44.2303 31.9968 42.2719 31.2768C40.3423 30.5568 38.6719 29.52 37.2607 28.1664C35.8495 26.784 34.7695 25.0848 34.0207 23.0688C33.2719 21.0528 32.8975 18.7488 32.8975 16.1568C32.8975 13.5648 33.2719 11.2752 34.0207 9.288C34.7695 7.272 35.8495 5.5872 37.2607 4.2336C38.6719 2.8512 40.3423 1.8 42.2719 1.08C44.2303 0.360003 46.4191 3.15552e-06 48.8383 3.15552e-06C51.2287 3.15552e-06 53.4031 0.360003 55.3615 1.08C57.3199 1.8 59.0047 2.8512 60.4159 4.2336C61.8271 5.616 62.9071 7.3008 63.6559 9.288C64.4047 11.2752 64.7791 13.5648 64.7791 16.1568C64.7791 18.7488 64.4047 21.0528 63.6559 23.0688C62.9071 25.0848 61.8271 26.784 60.4159 28.1664C59.0047 29.52 57.3199 30.5568 55.3615 31.2768C53.4031 31.9968 51.2287 32.3568 48.8383 32.3568ZM48.8383 25.7472C50.4511 25.7472 51.8623 25.4016 53.0719 24.7104C54.2815 24.0192 55.2031 22.968 55.8367 21.5568C56.4991 20.1456 56.8303 18.3456 56.8303 16.1568C56.8303 14.5152 56.6431 13.104 56.2687 11.9232C55.8943 10.7136 55.3471 9.72 54.6271 8.9424C53.9359 8.1648 53.1007 7.5888 52.1215 7.2144C51.1423 6.8112 50.0479 6.6096 48.8383 6.6096C47.2255 6.6096 45.8143 6.9552 44.6047 7.6464C43.4239 8.3088 42.5023 9.3456 41.8399 10.7568C41.1775 12.168 40.8463 13.968 40.8463 16.1568C40.8463 17.7984 41.0335 19.2384 41.4079 20.4768C41.8111 21.6864 42.3583 22.68 43.0495 23.4576C43.7407 24.2352 44.5759 24.8112 45.5551 25.1856C46.5343 25.56 47.6287 25.7472 48.8383 25.7472ZM68.4838 31.9248V0.432003H85.0726C86.3398 0.432003 87.5062 0.547203 88.5718 0.777603C89.6662 1.008 90.6454 1.3536 91.5094 1.8144C92.3734 2.2752 93.1078 2.8656 93.7126 3.5856C94.3174 4.2768 94.7782 5.0976 95.095 6.048C95.4406 6.9696 95.6134 8.0208 95.6134 9.2016C95.6134 11.1312 95.0806 12.7728 94.015 14.1264C92.9782 15.4512 91.567 16.344 89.7814 16.8048V17.1072C91.0198 17.3088 92.0134 17.6688 92.7622 18.1872C93.511 18.7056 94.0582 19.3824 94.4038 20.2176C94.7782 21.024 94.9654 22.0176 94.9654 23.1984V28.2528C94.9654 28.8288 94.9798 29.4336 95.0086 30.0672C95.0662 30.672 95.239 31.2912 95.527 31.9248H87.7078C87.535 31.5504 87.4054 31.0464 87.319 30.4128C87.2326 29.7792 87.1894 29.0592 87.1894 28.2528V24.5376C87.1894 23.7312 87.0598 23.0544 86.8006 22.5072C86.5702 21.96 86.1382 21.528 85.5046 21.2112C84.871 20.8944 83.9638 20.736 82.783 20.736H75.5686V14.6448H83.1718C84.8134 14.6448 85.9654 14.256 86.6278 13.4784C87.319 12.7008 87.6646 11.7504 87.6646 10.6272C87.6646 9.9072 87.5494 9.3168 87.319 8.856C87.1174 8.3664 86.815 7.9776 86.4118 7.6896C86.0086 7.3728 85.5334 7.1424 84.9862 6.9984C84.439 6.8544 83.8342 6.7824 83.1718 6.7824H76.2166V31.9248H68.4838ZM106.736 31.9248V6.4368H114.512V31.9248H106.736ZM97.7505 7.0848V0.432003H123.714V7.0848H97.7505ZM126.935 31.9248V0.432003H150.263V7.0416H133.07L134.668 5.4V26.9568L133.07 25.3152H150.393V31.9248H126.935ZM133.07 19.0512V12.8736H148.103V19.0512H133.07ZM152.143 31.9248L163.505 15.12L153.223 0.432003H162.338L166.572 7.56L168.343 10.7136H168.645L170.417 7.56L174.65 0.432003H183.765L173.7 15.0768L185.061 31.9248H175.903L170.46 23.1552L168.645 20.088H168.343L166.529 23.1552L161.085 31.9248H152.143ZM14.7747 71.3568C12.5571 71.3568 10.5411 70.9968 8.72673 70.2768C6.91233 69.5568 5.35713 68.52 4.06113 67.1664C2.76513 65.784 1.75713 64.128 1.03713 62.1984C0.345933 60.2688 0.000332895 58.08 0.000332895 55.632C0.000332895 53.0112 0.389133 50.6784 1.16673 48.6336C1.94433 46.56 3.05313 44.8176 4.49313 43.4064C5.96193 41.9664 7.68993 40.872 9.67713 40.1232C11.6931 39.3744 13.9395 39 16.4163 39C19.2387 39 21.7299 39.4608 23.8899 40.3824C26.0499 41.2752 27.8067 42.5568 29.1603 44.2272C30.5139 45.8688 31.3347 47.8272 31.6227 50.1024H23.7171C23.4579 49.1808 22.9683 48.3888 22.2483 47.7264C21.5571 47.064 20.7075 46.5456 19.6995 46.1712C18.7203 45.7968 17.6115 45.6096 16.3731 45.6096C14.5011 45.6096 12.9315 46.0272 11.6643 46.8624C10.4259 47.6688 9.48993 48.8064 8.85633 50.2752C8.25153 51.744 7.94913 53.4576 7.94913 55.416C7.94913 57 8.13633 58.3824 8.51073 59.5632C8.91393 60.744 9.47553 61.7376 10.1955 62.544C10.9155 63.3504 11.7795 63.9552 12.7875 64.3584C13.7955 64.7616 14.9187 64.9632 16.1571 64.9632C17.6547 64.9632 18.9795 64.704 20.1315 64.1856C21.2835 63.6672 22.1763 62.9472 22.8099 62.0256C23.4435 61.104 23.7603 60.0096 23.7603 58.7424V57.7056L25.2291 59.0448H15.7251V53.5152H31.9683V70.9248H25.7907L25.4883 66.432H25.1859C24.7251 67.4112 23.9763 68.2752 22.9395 69.024C21.9027 69.744 20.6787 70.32 19.2675 70.752C17.8563 71.1552 16.3587 71.3568 14.7747 71.3568ZM36.3471 70.9248V39.432H44.0799V65.2224L43.0431 64.056H57.6447V70.9248H36.3471ZM74.5203 71.3568C72.1011 71.3568 69.9123 70.9968 67.9539 70.2768C66.0243 69.5568 64.3539 68.52 62.9427 67.1664C61.5315 65.784 60.4515 64.0848 59.7027 62.0688C58.9539 60.0528 58.5795 57.7488 58.5795 55.1568C58.5795 52.5648 58.9539 50.2752 59.7027 48.288C60.4515 46.272 61.5315 44.5872 62.9427 43.2336C64.3539 41.8512 66.0243 40.8 67.9539 40.08C69.9123 39.36 72.1011 39 74.5203 39C76.9107 39 79.0851 39.36 81.0435 40.08C83.0019 40.8 84.6867 41.8512 86.0979 43.2336C87.5091 44.616 88.5891 46.3008 89.3379 48.288C90.0867 50.2752 90.4611 52.5648 90.4611 55.1568C90.4611 57.7488 90.0867 60.0528 89.3379 62.0688C88.5891 64.0848 87.5091 65.784 86.0979 67.1664C84.6867 68.52 83.0019 69.5568 81.0435 70.2768C79.0851 70.9968 76.9107 71.3568 74.5203 71.3568ZM74.5203 64.7472C76.1331 64.7472 77.5443 64.4016 78.7539 63.7104C79.9635 63.0192 80.8851 61.968 81.5187 60.5568C82.1811 59.1456 82.5123 57.3456 82.5123 55.1568C82.5123 53.5152 82.3251 52.104 81.9507 50.9232C81.5763 49.7136 81.0291 48.72 80.3091 47.9424C79.6179 47.1648 78.7827 46.5888 77.8035 46.2144C76.8243 45.8112 75.7299 45.6096 74.5203 45.6096C72.9075 45.6096 71.4963 45.9552 70.2867 46.6464C69.1059 47.3088 68.1843 48.3456 67.5219 49.7568C66.8595 51.168 66.5283 52.968 66.5283 55.1568C66.5283 56.7984 66.7155 58.2384 67.0899 59.4768C67.4931 60.6864 68.0403 61.68 68.7315 62.4576C69.4227 63.2352 70.2579 63.8112 71.2371 64.1856C72.2163 64.56 73.3107 64.7472 74.5203 64.7472ZM94.1659 70.9248V39.432H110.107C113.361 39.432 115.795 40.1808 117.407 41.6784C119.02 43.1472 119.827 45.1056 119.827 47.5536C119.827 48.7344 119.596 49.7856 119.135 50.7072C118.703 51.6288 118.084 52.4064 117.278 53.04C116.471 53.6736 115.507 54.12 114.383 54.3792L114.34 54.6816C115.809 54.912 117.004 55.3728 117.926 56.064C118.847 56.7264 119.524 57.5616 119.956 58.5696C120.417 59.5488 120.647 60.6432 120.647 61.8528C120.647 63.8688 120.187 65.5536 119.265 66.9072C118.372 68.2608 117.076 69.2688 115.377 69.9312C113.678 70.5936 111.59 70.9248 109.113 70.9248H94.1659ZM101.683 65.0496H108.206C109.847 65.0496 111.014 64.7184 111.705 64.056C112.425 63.3648 112.785 62.472 112.785 61.3776C112.785 60.0816 112.382 59.1456 111.575 58.5696C110.798 57.9648 109.747 57.6624 108.422 57.6624H101.035V52.0032H108.076C108.998 52.0032 109.747 51.8592 110.323 51.5712C110.899 51.2832 111.316 50.8944 111.575 50.4048C111.863 49.8864 112.007 49.2816 112.007 48.5904C112.007 47.4672 111.633 46.6464 110.884 46.128C110.164 45.5808 109.185 45.3072 107.947 45.3072H101.683V65.0496ZM122.075 70.9248L132.227 39.432H143.243L153.395 70.9248H145.317L139.01 49.3248L137.887 45.264H137.584L136.461 49.3248L130.154 70.9248H122.075ZM131.363 64.8768L133.048 58.9584H142.423L144.107 64.8768H131.363ZM156.33 70.9248V39.432H164.063V65.2224L163.026 64.056H177.628V70.9248H156.33Z" fill="#161616"/>
</svg>
